<?xml version="1.0" encoding="UTF-8"?>
<svg xmlns="http://www.w3.org/2000/svg"
     viewBox="0 0 512 512"
     stroke="white" stroke-width="15px" fill="none">
    <defs>
        <clipPath id="cutout">
            <!-- Usamos o <path> para desenhar o retângulo e subtrair o círculo -->
            <path d="
                M 0, 0 
                L 512, 0 
                L 512, 512 
                L 0, 512 
                Z
                M 354.8, 179.2
                A 76.8, 76.8 0 1, 0 354.8, 332.8
                A 76.8, 76.8 0 1, 0 354.8, 179.2
                Z"/>
        </clipPath>
    </defs>
    <g clip-path="url(#cutout)">
        <g transform="translate(25.6, 51.2) scale(0.8, 0.8)">
            <path transform="rotate(-90, 288, 256)"
                  d="M80 160c-8.8 0-16 7.2-16 16V336c0 8.8 7.2 16 16 16H464c8.8 0 16-7.2 16-16V176c0-8.8-7.2-16-16-16H80zM0 176c0-44.2 35.8-80 80-80H464c44.2 0 80 35.8 80 80v16c17.7 0 32 14.3 32 32v64c0 17.7-14.3 32-32 32v16c0 44.2-35.8 80-80 80H80c-44.2 0-80-35.8-80-80V176z"/>
        </g>
        <g transform="translate(198.4, 128) scale(0.3, 0.5)">
            <path d="M317.4 44.6c5.9-13.7 1.5-29.7-10.6-38.5s-28.6-8-39.9 1.8l-256 224C.9 240.7-2.6 254.8 2 267.3S18.7 288 32 288H143.5L66.6 467.4c-5.9 13.7-1.5 29.7 10.6 38.5s28.6 8 39.9-1.8l256-224c10-8.8 13.6-22.9 8.9-35.3s-16.6-20.7-30-20.7H240.5L317.4 44.6z"/>
        </g>
    </g>
    <g transform="translate(278, 179.2) scale(0.3, 0.3)">
        <path d="M256 512A256 256 0 1 0 256 0a256 256 0 1 0 0 512zM169.8 165.3c7.9-22.3 29.1-37.3 52.8-37.3h58.3c34.9 0 63.1 28.3 63.1 63.1c0 22.6-12.1 43.5-31.7 54.8L280 264.4c-.2 13-10.9 23.6-24 23.6c-13.3 0-24-10.7-24-24V250.5c0-8.6 4.6-16.5 12.1-20.8l44.3-25.4c4.7-2.7 7.6-7.7 7.6-13.1c0-8.4-6.8-15.1-15.1-15.1H222.6c-3.4 0-6.4 2.1-7.5 5.3l-.4 1.2c-4.4 12.5-18.2 19-30.6 14.6s-19-18.2-14.6-30.6l.4-1.2zM224 352a32 32 0 1 1 64 0 32 32 0 1 1 -64 0z"/>
    </g>
</svg>